<svg xmlns="http://www.w3.org/2000/svg" width="600" height="410" viewBox="0 0 600 410" role="img" aria-labelledby="title description"><style>@media (prefers-color-scheme: dark){[fill="#F6F3EA"]{fill:#24362E}[fill="#24443B"]{fill:#E3EBDD}[fill="#E4EDE4"]{fill:#344A40}[fill="#FFFDF7"]{fill:#1B2923}[fill="#2F6E63"]{fill:#A4CDBC}[stroke="#2F6E63"]{stroke:#A4CDBC}[stroke="#DEDCD1"],[stroke="#D7D9CD"],[stroke="#DADCCF"]{stroke:#486052}}</style><title id="title">Demo request</title><desc id="description">Set expectations; Ask for useful details; Respond with context. A simplified guide, not measured results.</desc><rect x="1" y="1" width="598" height="408" rx="12" fill="#F6F3EA" stroke="#DEDCD1"/><path d="M22 95h556M22 366h556" stroke="#D7D9CD"/><g fill="#24443B" font-family="Arial, Helvetica, sans-serif"><text x="25" y="29" font-size="12" letter-spacing="2">THE IDEA AT A GLANCE</text><text x="25" y="67" font-size="29"><tspan x="25" dy="0">Demo request</tspan></text><g stroke="#2F6E63" stroke-width="2.5" stroke-linecap="round" stroke-linejoin="round" fill="#E4EDE4"><rect x="47" y="129" width="106" height="48" rx="7"/><rect x="47" y="208" width="106" height="48" rx="7"/><rect x="47" y="287" width="106" height="48" rx="7"/><path d="M100 178v24m-7-7l7 7 7-7m-7 63v24m-7-7l7 7 7-7" fill="none"/><path d="M72 153h56m-56 79h56m-56 79h56"/></g><circle cx="204" cy="152" r="12" fill="#2F6E63"/><text x="204" y="156" text-anchor="middle" font-size="12" fill="#FFFDF7">1</text><text x="228" y="155" font-size="22"><tspan x="228" dy="0">Set expectations</tspan></text><circle cx="204" cy="231" r="12" fill="#2F6E63"/><text x="204" y="235" text-anchor="middle" font-size="12" fill="#FFFDF7">2</text><text x="228" y="234" font-size="22"><tspan x="228" dy="0">Ask for useful details</tspan></text><circle cx="204" cy="310" r="12" fill="#2F6E63"/><text x="204" y="314" text-anchor="middle" font-size="12" fill="#FFFDF7">3</text><text x="228" y="313" font-size="22"><tspan x="228" dy="0">Respond with context</tspan></text><text x="25" y="390" font-size="12" letter-spacing="1.3">B2B PLAYBOOK</text><text x="577" y="390" text-anchor="end" font-size="12">Ivan Xu · Field notes</text></g></svg>
